<svg width="331" height="57" viewBox="0 0 331 57" fill="none" xmlns="http://www.w3.org/2000/svg">
<g clip-path="url(#clip0_8_117)">
<path d="M38.1492 26.6466C35.5821 22.6453 31.2101 20.256 26.4538 20.256C21.6975 20.256 17.3254 22.6453 14.7588 26.6466L8.57303 36.2882C7.54683 37.8876 7.07328 39.7359 7.20331 41.6315C7.33345 43.5275 8.05558 45.2931 9.29126 46.7387C10.5277 48.1829 12.1616 49.1701 14.0162 49.5937C15.8708 50.0172 17.772 49.8364 19.5138 49.0713L19.6305 49.0196C24.0134 47.1331 29.0217 47.1505 33.3934 49.0713C34.521 49.5667 35.7158 49.8172 36.9214 49.8172C37.5769 49.8172 38.2363 49.7429 38.8895 49.5941C40.7442 49.171 42.3781 48.1838 43.615 46.7391C44.8511 45.2948 45.5736 43.5289 45.7041 41.6324C45.8347 39.7359 45.3612 37.8881 44.3349 36.2877L38.1492 26.6466ZM10.2392 26.6339C12.0794 25.9278 13.4774 24.4461 14.1756 22.4618C14.8402 20.5735 14.7857 18.4417 14.0218 16.4587C13.2576 14.4771 11.8675 12.8593 10.1073 11.903C8.25837 10.8988 6.22714 10.7354 4.38989 11.4429C0.693898 12.8627 -1.00229 17.4263 0.609328 21.6181C1.89681 24.9544 4.89965 27.0605 7.93536 27.0605C8.72308 27.0615 9.50418 26.9169 10.2392 26.6339ZM22.2414 19.0802C26.862 19.0802 30.6212 14.801 30.6212 9.54115C30.6212 4.28001 26.862 0 22.2414 0C17.6213 0 13.8626 4.28001 13.8626 9.54115C13.8626 14.801 17.6212 19.0802 22.2414 19.0802ZM36.7133 21.4238H36.7138C37.4097 21.6548 38.1383 21.7724 38.8717 21.772C42.2413 21.772 45.5253 19.3216 46.7783 15.5554C47.5 13.3877 47.4524 11.0954 46.6446 9.10152C45.7995 7.01412 44.233 5.49894 42.2335 4.83498C40.2335 4.17091 38.0708 4.44789 36.1432 5.61428C34.3017 6.72834 32.8905 8.5362 32.1699 10.704C30.6486 15.2772 32.6869 20.086 36.7133 21.4238ZM54.3603 20.3105L54.359 20.3091C51.1726 17.9573 46.4071 18.9767 43.7352 22.5827C41.0658 26.1904 41.4832 31.0405 44.6648 33.3941C45.8251 34.253 47.1963 34.6635 48.5994 34.6635C51.0452 34.6635 53.5895 33.4162 55.2904 31.1228C57.9594 27.515 57.5424 22.6648 54.3603 20.3104V20.3105Z" fill="#FDEEE3"/>
</g>
<path d="M305.539 26.4736C305.197 26.4736 305.026 26.2946 305.026 25.9365V23.9834C305.026 23.6416 305.197 23.4707 305.539 23.4707H308.08V17.9287C308.08 17.6846 308.113 17.4404 308.178 17.1963C308.259 16.9521 308.463 16.765 308.789 16.6348L322.277 11.6543C322.896 11.4264 323.409 11.2555 323.816 11.1416C324.223 11.0277 324.582 10.9707 324.891 10.9707C325.005 10.9707 325.128 10.9951 325.258 11.0439C325.404 11.0765 325.535 11.1416 325.649 11.2393C325.779 11.3369 325.885 11.4753 325.966 11.6543C326.048 11.8171 326.089 12.0205 326.089 12.2646V23.4707H330.487C330.829 23.4707 331 23.6416 331 23.9834V25.9365C331 26.2946 330.829 26.4736 330.487 26.4736H326.089V36.3125C326.089 37.4681 326.276 38.2819 326.651 38.7539C327.042 39.2259 327.636 39.4619 328.434 39.4619C328.614 39.4619 328.801 39.4456 328.996 39.4131C329.192 39.3643 329.371 39.3236 329.534 39.291C329.713 39.2422 329.876 39.2015 330.023 39.1689C330.169 39.1201 330.291 39.0957 330.389 39.0957C330.568 39.0957 330.658 39.2015 330.658 39.4131V41.293C330.658 41.6185 330.593 41.8382 330.462 41.9521C330.332 42.0661 330.218 42.1393 330.12 42.1719C329.501 42.4323 328.768 42.6927 327.921 42.9531C327.09 43.2135 326.186 43.4414 325.209 43.6367C324.248 43.8483 323.23 44.0111 322.155 44.125C321.08 44.2552 320.004 44.3203 318.929 44.3203C317.382 44.3203 315.94 44.2389 314.604 44.0762C313.285 43.9297 312.136 43.5798 311.159 43.0264C310.198 42.473 309.44 41.651 308.887 40.5605C308.349 39.4701 308.08 37.9889 308.08 36.1172V26.4736H305.539Z" fill="#FDEEE3"/>
<path d="M297.354 39.4131C297.793 39.4131 298.192 39.3561 298.551 39.2422C298.909 39.112 299.227 38.9736 299.504 38.8271C299.797 38.6807 300.033 38.5505 300.212 38.4365C300.408 38.3063 300.554 38.2412 300.652 38.2412C300.799 38.2412 300.897 38.2656 300.945 38.3145C301.011 38.3633 301.084 38.4528 301.165 38.583L302.021 39.9014C302.102 40.0316 302.143 40.1455 302.143 40.2432C302.143 40.3571 302.11 40.4466 302.045 40.5117C301.98 40.5768 301.915 40.6338 301.85 40.6826C301.312 41.057 300.652 41.4639 299.87 41.9033C299.088 42.3265 298.176 42.7171 297.134 43.0752C296.107 43.4333 294.943 43.7262 293.639 43.9541C292.336 44.1982 290.903 44.3203 289.339 44.3203C288.117 44.3203 286.895 44.2227 285.674 44.0273C284.452 43.832 283.279 43.5228 282.155 43.0996C281.047 42.6764 280.013 42.123 279.052 41.4395C278.091 40.7559 277.252 39.9176 276.535 38.9248C275.835 37.932 275.281 36.7845 274.874 35.4824C274.466 34.1641 274.263 32.6585 274.263 30.9658C274.263 29.3057 274.466 27.8245 274.874 26.5225C275.281 25.2041 275.835 24.0485 276.535 23.0557C277.252 22.0628 278.091 21.2246 279.052 20.541C280.013 19.8411 281.047 19.2796 282.155 18.8564C283.279 18.417 284.452 18.0996 285.674 17.9043C286.895 17.709 288.117 17.6113 289.339 17.6113C291.375 17.6113 293.265 17.8392 295.008 18.2949C296.767 18.7507 298.29 19.4993 299.577 20.541C300.864 21.5827 301.874 22.9499 302.607 24.6426C303.34 26.3353 303.707 28.4105 303.707 30.8682V32.2354C303.707 32.5283 303.633 32.7562 303.487 32.9189C303.34 33.0817 303.096 33.1631 302.754 33.1631H292.638C292.768 34.3675 292.996 35.3766 293.322 36.1904C293.664 36.988 294.047 37.6309 294.47 38.1191C294.91 38.5911 295.382 38.9248 295.887 39.1201C296.392 39.3154 296.881 39.4131 297.354 39.4131ZM300.237 30.1602C300.237 28.8581 300.131 27.7839 299.919 26.9375C299.724 26.0749 299.455 25.3913 299.113 24.8867C298.771 24.3659 298.364 23.9997 297.891 23.7881C297.435 23.5765 296.954 23.4707 296.449 23.4707C296.075 23.4707 295.668 23.5439 295.228 23.6904C294.788 23.8369 294.372 24.1462 293.982 24.6182C293.607 25.0902 293.281 25.7656 293.004 26.6445C292.744 27.5234 292.589 28.6953 292.54 30.1602H300.237Z" fill="#FDEEE3"/>
<path d="M244.77 21.8594C244.77 21.306 244.818 20.8177 244.916 20.3945C245.014 19.9551 245.201 19.597 245.478 19.3203C245.755 19.0436 246.138 18.832 246.627 18.6855C247.115 18.5391 247.751 18.4658 248.532 18.4658H258.526C259.259 18.4658 259.886 18.5391 260.408 18.6855C260.945 18.832 261.328 19.0843 261.556 19.4424C261.768 19.2959 262.02 19.1413 262.314 18.9785C262.623 18.7995 262.957 18.6367 263.316 18.4902C263.674 18.3438 264.057 18.2217 264.464 18.124C264.871 18.0264 265.295 17.9775 265.735 17.9775C267.298 17.9775 268.512 18.5146 269.375 19.5889C270.255 20.6631 270.695 22.2419 270.695 24.3252V42.3184C270.695 42.5951 270.654 42.8148 270.573 42.9775C270.507 43.124 270.418 43.238 270.304 43.3193C270.206 43.3844 270.084 43.4251 269.937 43.4414C269.791 43.4577 269.644 43.4658 269.498 43.4658H267.934C267.51 43.4658 267.233 43.3438 267.103 43.0996C266.989 42.8555 266.932 42.5951 266.932 42.3184V24.0811C266.932 23.1533 266.761 22.4453 266.419 21.957C266.093 21.4688 265.564 21.2246 264.83 21.2246C264.456 21.2246 264.073 21.3304 263.682 21.542C263.307 21.7373 263.006 21.9489 262.778 22.1768V40.0479C262.778 40.6175 262.729 41.1139 262.631 41.5371C262.534 41.9603 262.346 42.3184 262.069 42.6113C261.792 42.888 261.41 43.0996 260.921 43.2461C260.432 43.3926 259.797 43.4658 259.015 43.4658H248.532C247.751 43.4658 247.115 43.3926 246.627 43.2461C246.138 43.0996 245.755 42.888 245.478 42.6113C245.201 42.3346 245.014 41.9847 244.916 41.5615C244.818 41.1383 244.77 40.6419 244.77 40.0723V21.8594Z" fill="#FDEEE3"/>
<path d="M223.463 43.4658C222.583 43.4658 221.695 43.4089 220.799 43.2949C219.92 43.181 219.073 43.002 218.258 42.7578C217.46 42.4974 216.711 42.1637 216.01 41.7568C215.31 41.3499 214.699 40.8454 214.178 40.2432C213.673 39.641 213.274 38.9329 212.98 38.1191C212.687 37.3053 212.541 36.3695 212.541 35.3115C212.541 33.8955 212.809 32.6829 213.347 31.6738C213.884 30.6647 214.601 29.8265 215.497 29.1592C216.409 28.4919 217.452 27.9792 218.625 27.6211C219.798 27.263 221.011 27.0352 222.266 26.9375V25.2529C222.266 24.6182 222.184 24.1136 222.021 23.7393C221.858 23.3649 221.647 23.0882 221.386 22.9092C221.142 22.7139 220.865 22.5918 220.555 22.543C220.262 22.4779 219.977 22.4453 219.7 22.4453C219.374 22.4453 219.024 22.4941 218.649 22.5918C218.291 22.6895 217.941 22.8115 217.599 22.958C217.256 23.0882 216.931 23.2347 216.621 23.3975C216.312 23.5602 216.051 23.7067 215.839 23.8369C215.741 23.902 215.652 23.959 215.57 24.0078C215.489 24.0566 215.408 24.0811 215.326 24.0811C215.179 24.0811 215.041 23.9753 214.911 23.7637L214.08 22.4453C213.998 22.3314 213.958 22.2093 213.958 22.0791C213.958 21.9489 214.007 21.835 214.104 21.7373C214.218 21.6396 214.324 21.5583 214.422 21.4932C214.96 21.1188 215.644 20.7363 216.475 20.3457C217.305 19.9551 218.234 19.6051 219.26 19.2959C220.303 18.9867 221.427 18.7344 222.632 18.5391C223.838 18.3438 225.084 18.2461 226.371 18.2461C227.592 18.2461 228.781 18.2868 229.938 18.3682C231.111 18.4495 232.211 18.6286 233.237 18.9053C234.279 19.1657 235.224 19.5482 236.071 20.0527C236.935 20.541 237.676 21.1921 238.295 22.0059C238.93 22.8197 239.419 23.8206 239.761 25.0088C240.103 26.1969 240.274 27.6211 240.274 29.2812V40.1699C240.274 40.707 240.225 41.1872 240.127 41.6104C240.03 42.0173 239.842 42.359 239.565 42.6357C239.288 42.9124 238.906 43.124 238.417 43.2705C237.928 43.4007 237.293 43.4658 236.511 43.4658H223.463ZM222.266 30.0381C221.093 30.0381 220.107 30.1846 219.309 30.4775C218.511 30.7705 217.867 31.1611 217.379 31.6494C216.89 32.1377 216.54 32.7074 216.328 33.3584C216.116 33.9932 216.01 34.6523 216.01 35.3359C216.01 36.0195 216.116 36.6706 216.328 37.2891C216.54 37.8913 216.89 38.4202 217.379 38.876C217.867 39.3317 218.511 39.6898 219.309 39.9502C220.107 40.2106 221.093 40.3408 222.266 40.3408V30.0381Z" fill="#FDEEE3"/>
<path d="M190.72 6.86914C190.72 6.31576 190.769 5.82747 190.867 5.4043C190.965 4.96484 191.152 4.60677 191.429 4.33008C191.706 4.05339 192.089 3.8418 192.577 3.69531C193.066 3.54883 193.701 3.47559 194.483 3.47559H205.186C205.935 3.47559 206.538 3.54883 206.994 3.69531C207.45 3.82552 207.808 4.02897 208.069 4.30566C208.33 4.58236 208.501 4.93229 208.582 5.35547C208.68 5.77865 208.729 6.27507 208.729 6.84473V40.1211C208.729 40.6745 208.68 41.1628 208.582 41.5859C208.484 41.9928 208.305 42.3428 208.044 42.6357C207.784 42.9124 207.417 43.124 206.945 43.2705C206.489 43.4007 205.886 43.4658 205.137 43.4658H194.483C193.701 43.4658 193.066 43.3926 192.577 43.2461C192.089 43.0996 191.706 42.888 191.429 42.6113C191.152 42.3346 190.965 41.9847 190.867 41.5615C190.769 41.1383 190.72 40.6419 190.72 40.0723V6.86914Z" fill="#FDEEE3"/>
<path d="M172.492 17.9043C173.697 17.9043 174.895 17.9938 176.084 18.1729C177.273 18.3519 178.413 18.6449 179.505 19.0518C180.596 19.4587 181.606 19.9876 182.535 20.6387C183.463 21.2897 184.269 22.0954 184.954 23.0557C185.638 24.016 186.175 25.139 186.566 26.4248C186.957 27.6943 187.153 29.1592 187.153 30.8193C187.153 32.8701 186.859 34.6442 186.273 36.1416C185.687 37.6227 184.905 38.8678 183.927 39.877C182.95 40.8861 181.818 41.6836 180.531 42.2695C179.244 42.8392 177.892 43.238 176.475 43.4658V50.1064C176.475 50.6924 176.426 51.1969 176.328 51.6201C176.23 52.0433 176.051 52.3932 175.791 52.6699C175.546 52.9629 175.188 53.1745 174.715 53.3047C174.259 53.4512 173.665 53.5244 172.932 53.5244H162.229C161.447 53.5244 160.812 53.4512 160.323 53.3047C159.835 53.1582 159.452 52.9385 159.175 52.6455C158.898 52.3688 158.711 52.0189 158.613 51.5957C158.515 51.1725 158.466 50.6761 158.466 50.1064V30.5752C158.466 28.557 158.776 26.7585 159.395 25.1797C160.03 23.6009 160.942 22.2744 162.132 21.2002C163.337 20.126 164.803 19.3122 166.53 18.7588C168.273 18.1891 170.26 17.9043 172.492 17.9043ZM183.683 30.7949C183.683 29.5417 183.545 28.3779 183.268 27.3037C182.991 26.2295 182.559 25.2773 181.973 24.4473C181.386 23.6172 180.637 22.9417 179.725 22.4209C178.829 21.8838 177.745 21.542 176.475 21.3955V40.3408C177.745 40.1781 178.829 39.8281 179.725 39.291C180.637 38.7539 181.386 38.0622 181.973 37.2158C182.559 36.3695 182.991 35.401 183.268 34.3105C183.545 33.2201 183.683 32.0482 183.683 30.7949Z" fill="#FDEEE3"/>
<path d="M129.267 26.4736C128.924 26.4736 128.753 26.2946 128.753 25.9365V23.9834C128.753 23.6416 128.924 23.4707 129.267 23.4707H131.808V17.9287C131.808 17.6846 131.84 17.4404 131.906 17.1963C131.987 16.9521 132.191 16.765 132.516 16.6348L146.004 11.6543C146.623 11.4264 147.136 11.2555 147.544 11.1416C147.951 11.0277 148.309 10.9707 148.619 10.9707C148.733 10.9707 148.855 10.9951 148.985 11.0439C149.132 11.0765 149.262 11.1416 149.376 11.2393C149.507 11.3369 149.613 11.4753 149.694 11.6543C149.775 11.8171 149.816 12.0205 149.816 12.2646V23.4707H154.214C154.557 23.4707 154.728 23.6416 154.728 23.9834V25.9365C154.728 26.2946 154.557 26.4736 154.214 26.4736H149.816V36.3125C149.816 37.4681 150.004 38.2819 150.378 38.7539C150.769 39.2259 151.364 39.4619 152.162 39.4619C152.341 39.4619 152.528 39.4456 152.724 39.4131C152.919 39.3643 153.099 39.3236 153.261 39.291C153.441 39.2422 153.604 39.2015 153.75 39.1689C153.897 39.1201 154.019 39.0957 154.117 39.0957C154.296 39.0957 154.385 39.2015 154.385 39.4131V41.293C154.385 41.6185 154.32 41.8382 154.19 41.9521C154.06 42.0661 153.946 42.1393 153.848 42.1719C153.229 42.4323 152.496 42.6927 151.649 42.9531C150.818 43.2135 149.914 43.4414 148.937 43.6367C147.975 43.8483 146.957 44.0111 145.882 44.125C144.807 44.2552 143.732 44.3203 142.657 44.3203C141.109 44.3203 139.668 44.2389 138.332 44.0762C137.012 43.9297 135.864 43.5798 134.887 43.0264C133.925 42.473 133.168 41.651 132.614 40.5605C132.077 39.4701 131.808 37.9889 131.808 36.1172V26.4736H129.267Z" fill="#FDEEE3"/>
<path d="M121.081 39.4131C121.521 39.4131 121.92 39.3561 122.278 39.2422C122.637 39.112 122.954 38.9736 123.231 38.8271C123.525 38.6807 123.761 38.5505 123.94 38.4365C124.135 38.3063 124.282 38.2412 124.38 38.2412C124.526 38.2412 124.624 38.2656 124.673 38.3145C124.738 38.3633 124.811 38.4528 124.893 38.583L125.748 39.9014C125.83 40.0316 125.87 40.1455 125.87 40.2432C125.87 40.3571 125.838 40.4466 125.773 40.5117C125.707 40.5768 125.642 40.6338 125.577 40.6826C125.04 41.057 124.38 41.4639 123.598 41.9033C122.816 42.3265 121.904 42.7171 120.861 43.0752C119.835 43.4333 118.67 43.7262 117.367 43.9541C116.064 44.1982 114.63 44.3203 113.066 44.3203C111.845 44.3203 110.623 44.2227 109.401 44.0273C108.18 43.832 107.007 43.5228 105.883 43.0996C104.775 42.6764 103.741 42.123 102.779 41.4395C101.818 40.7559 100.979 39.9176 100.263 38.9248C99.5622 37.932 99.0083 36.7845 98.6011 35.4824C98.1939 34.1641 97.9902 32.6585 97.9902 30.9658C97.9902 29.3057 98.1939 27.8245 98.6011 26.5225C99.0083 25.2041 99.5622 24.0485 100.263 23.0557C100.979 22.0628 101.818 21.2246 102.779 20.541C103.741 19.8411 104.775 19.2796 105.883 18.8564C107.007 18.417 108.18 18.0996 109.401 17.9043C110.623 17.709 111.845 17.6113 113.066 17.6113C115.103 17.6113 116.992 17.8392 118.735 18.2949C120.495 18.7507 122.018 19.4993 123.305 20.541C124.592 21.5827 125.602 22.9499 126.335 24.6426C127.068 26.3353 127.434 28.4105 127.434 30.8682V32.2354C127.434 32.5283 127.361 32.7562 127.214 32.9189C127.068 33.0817 126.823 33.1631 126.481 33.1631H116.365C116.495 34.3675 116.724 35.3766 117.049 36.1904C117.391 36.988 117.774 37.6309 118.198 38.1191C118.638 38.5911 119.11 38.9248 119.615 39.1201C120.12 39.3154 120.609 39.4131 121.081 39.4131ZM123.964 30.1602C123.964 28.8581 123.858 27.7839 123.647 26.9375C123.451 26.0749 123.182 25.3913 122.84 24.8867C122.498 24.3659 122.091 23.9997 121.619 23.7881C121.163 23.5765 120.682 23.4707 120.177 23.4707C119.802 23.4707 119.395 23.5439 118.955 23.6904C118.515 23.8369 118.1 24.1462 117.709 24.6182C117.334 25.0902 117.009 25.7656 116.732 26.6445C116.471 27.5234 116.316 28.6953 116.267 30.1602H123.964Z" fill="#FDEEE3"/>
<path d="M68.0576 11.8252C68.0576 11.2555 68.1065 10.7591 68.2042 10.3359C68.302 9.91276 68.4893 9.56283 68.7662 9.28613C69.0432 8.99316 69.426 8.77344 69.9147 8.62695C70.4034 8.48047 71.0387 8.40723 71.8206 8.40723H82.7185C83.8425 8.40723 84.9583 8.48047 86.066 8.62695C87.1737 8.75716 88.2326 8.98503 89.2425 9.31055C90.2688 9.63607 91.2136 10.0592 92.077 10.5801C92.9566 11.1009 93.7141 11.752 94.3494 12.5332C95.001 13.2982 95.506 14.2015 95.8644 15.2432C96.239 16.2686 96.4264 17.4567 96.4264 18.8076C96.4264 20.8096 96.1494 22.5023 95.5956 23.8857C95.058 25.2529 94.325 26.3841 93.3965 27.2793C92.4679 28.1745 91.3847 28.8581 90.1466 29.3301C88.9249 29.8021 87.638 30.1439 86.2859 30.3555V39.5107C86.2859 39.8851 86.2534 40.3001 86.1882 40.7559C86.123 41.2116 85.9601 41.6429 85.6995 42.0498C85.4389 42.4404 85.0398 42.7741 84.5022 43.0508C83.9646 43.3275 83.2235 43.4658 82.2786 43.4658H71.8206C71.0387 43.4658 70.4034 43.3926 69.9147 43.2461C69.426 43.0996 69.0432 42.888 68.7662 42.6113C68.4893 42.3346 68.302 41.9847 68.2042 41.5615C68.1065 41.1383 68.0576 40.6419 68.0576 40.0723V11.8252ZM92.9811 19.1738C92.9811 18.1973 92.8507 17.3021 92.5901 16.4883C92.3295 15.6582 91.9304 14.9339 91.3928 14.3154C90.8552 13.6969 90.1629 13.1842 89.3159 12.7773C88.4688 12.3704 87.4588 12.0938 86.2859 11.9473V27.1084C87.4588 26.9294 88.4688 26.6038 89.3159 26.1318C90.1629 25.6598 90.8552 25.0739 91.3928 24.374C91.9304 23.6742 92.3295 22.8848 92.5901 22.0059C92.8507 21.1107 92.9811 20.1667 92.9811 19.1738Z" fill="#FDEEE3"/>
<defs>
<clipPath id="clip0_8_117">
<rect width="57.0483" height="57" fill="white"/>
</clipPath>
</defs>
</svg>
