<svg width="1440" height="795" viewBox="0 0 1440 795" fill="none" xmlns="http://www.w3.org/2000/svg">
<g opacity="0.3" clip-path="url(#clip0_8_109)">
<rect x="1" width="1442" height="1" fill="#FDEEE3"/>
<rect x="1" y="51" width="1442" height="1" fill="#FDEEE3"/>
<rect x="1" y="102" width="1442" height="1" fill="#FDEEE3"/>
<rect x="1" y="153" width="1442" height="1" fill="#FDEEE3"/>
<rect x="1" y="204" width="1442" height="1" fill="#FDEEE3"/>
<rect x="1" y="255" width="1442" height="1" fill="#FDEEE3"/>
<rect x="1" y="306" width="1442" height="1" fill="#FDEEE3"/>
<rect x="1" y="357" width="1442" height="1" fill="#FDEEE3"/>
<rect x="1" y="408" width="1442" height="1" fill="#FDEEE3"/>
<rect x="1" y="459" width="1442" height="1" fill="#FDEEE3"/>
<rect x="1" y="510" width="1442" height="1" fill="#FDEEE3"/>
<rect x="1" y="561" width="1442" height="1" fill="#FDEEE3"/>
<rect x="1" y="612" width="1442" height="1" fill="#FDEEE3"/>
<rect x="1" y="663" width="1442" height="1" fill="#FDEEE3"/>
<rect x="1" y="714" width="1442" height="1" fill="#FDEEE3"/>
<rect x="1" y="765" width="1442" height="1" fill="#FDEEE3"/>
</g>
<g opacity="0.2">
<rect width="1.37931" height="795" fill="#FDEEE3"/>
<rect x="51.3794" width="1.37931" height="795" fill="#FDEEE3"/>
<rect x="102.759" width="1.37931" height="795" fill="#FDEEE3"/>
<rect x="154.138" width="1.37931" height="795" fill="#FDEEE3"/>
<rect x="205.517" width="1.37931" height="795" fill="#FDEEE3"/>
<rect x="256.896" width="1.37931" height="795" fill="#FDEEE3"/>
<rect x="308.276" width="1.37931" height="795" fill="#FDEEE3"/>
<rect x="359.655" width="1.37931" height="795" fill="#FDEEE3"/>
<rect x="411.035" width="1.37931" height="795" fill="#FDEEE3"/>
<rect x="462.414" width="1.37931" height="795" fill="#FDEEE3"/>
<rect x="513.793" width="1.37931" height="795" fill="#FDEEE3"/>
<rect x="565.172" width="1.37931" height="795" fill="#FDEEE3"/>
<rect x="616.552" width="1.37931" height="795" fill="#FDEEE3"/>
<rect x="667.931" width="1.37931" height="795" fill="#FDEEE3"/>
<rect x="719.311" width="1.37931" height="795" fill="#FDEEE3"/>
<rect x="770.69" width="1.37931" height="795" fill="#FDEEE3"/>
<rect x="822.069" width="1.37931" height="795" fill="#FDEEE3"/>
<rect x="873.448" width="1.37931" height="795" fill="#FDEEE3"/>
<rect x="924.828" width="1.37931" height="795" fill="#FDEEE3"/>
<rect x="976.207" width="1.37931" height="795" fill="#FDEEE3"/>
<rect x="1027.59" width="1.37931" height="795" fill="#FDEEE3"/>
<rect x="1078.97" width="1.37931" height="795" fill="#FDEEE3"/>
<rect x="1130.34" width="1.37931" height="795" fill="#FDEEE3"/>
<rect x="1181.72" width="1.37931" height="795" fill="#FDEEE3"/>
<rect x="1233.1" width="1.37931" height="795" fill="#FDEEE3"/>
<rect x="1284.48" width="1.37931" height="795" fill="#FDEEE3"/>
<rect x="1335.86" width="1.37931" height="795" fill="#FDEEE3"/>
<rect x="1387.24" width="1.37931" height="795" fill="#FDEEE3"/>
</g>
<defs>
<clipPath id="clip0_8_109">
<rect width="1439" height="795" fill="white" transform="translate(0.998047)"/>
</clipPath>
</defs>
</svg>
